<?xml version="1.0" encoding="UTF-8"?><svg id="Layer_2" xmlns="http://www.w3.org/2000/svg" viewBox="0 0 399 399"><defs><style>.cls-1{fill:#29abe2;}</style></defs><g id="Layer_1-2"><path class="cls-1" d="M236.37,199.5L391.36,44.5c10.18-10.18,10.18-26.69,0-36.87h0c-10.18-10.18-26.69-10.18-36.87,0L199.5,162.63,44.5,7.64C34.32-2.55,17.82-2.55,7.64,7.64h0c-10.18,10.18-10.18,26.69,0,36.87L162.63,199.5,7.64,354.5c-10.18,10.18-10.18,26.69,0,36.87h0c10.18,10.18,26.69,10.18,36.87,0L199.5,236.37l155,155c10.18,10.18,26.69,10.18,36.87,0h0c10.18-10.18,10.18-26.69,0-36.87L236.37,199.5Z"/></g></svg>